<?xml version="1.0" standalone="no"?>
<!DOCTYPE svg PUBLIC "-//W3C//DTD SVG 20010904//EN"
 "http://www.w3.org/TR/2001/REC-SVG-20010904/DTD/svg10.dtd">
<svg version="1.0" xmlns="http://www.w3.org/2000/svg"
 width="500.000000pt" height="500.000000pt" viewBox="0 0 500.000000 500.000000"
 preserveAspectRatio="xMidYMid meet">

<g transform="translate(0.000000,500.000000) scale(0.100000,-0.100000)"
fill="#000000" stroke="none">
<path d="M1430 3538 c0 -7 18 -21 40 -31 45 -21 87 -76 116 -152 17 -46 19
-79 18 -375 0 -214 -4 -351 -13 -400 -36 -217 -91 -340 -201 -450 -57 -58 -91
-83 -142 -106 -45 -19 -67 -34 -65 -44 2 -13 56 -15 400 -18 l397 -2 -1 37 c0
33 -7 43 -52 79 -99 77 -179 208 -235 384 -46 143 -53 223 -50 525 3 262 4
270 23 270 17 0 54 -76 227 -460 l207 -460 101 -3 100 -3 1 -172 c1 -131 3
-164 11 -137 142 505 376 1285 394 1317 39 67 79 78 102 28 42 -93 67 -548 41
-760 -22 -181 -77 -332 -160 -442 -42 -56 -129 -121 -205 -153 -96 -42 -68
-45 418 -48 381 -2 457 0 467 12 10 11 0 19 -55 45 -47 22 -87 52 -138 104
-157 157 -248 385 -262 657 -19 358 146 643 420 725 105 31 8 45 -326 45
l-207 0 -34 -30 c-62 -54 -99 -146 -187 -460 -171 -614 -205 -725 -222 -728
-21 -4 -36 42 -117 368 -33 135 -74 289 -91 343 l-31 97 -69 0 -70 0 0 145 0
145 -41 45 c-60 66 -102 75 -326 75 -140 0 -183 -3 -183 -12z"/>
</g>
</svg>
